<svg xmlns="http://www.w3.org/2000/svg" width="10.085" height="18.652" viewBox="0 0 10.085 18.652">
  <path id="Path_1" data-name="Path 1" d="M286.365,382.8l-2.419,0a4.248,4.248,0,0,0-4.473,4.59V389.5h-2.432a.38.38,0,0,0-.381.38v3.067a.381.381,0,0,0,.381.38h2.432v7.738a.38.38,0,0,0,.38.38h3.173a.38.38,0,0,0,.38-.38v-7.738h2.843a.381.381,0,0,0,.381-.38v-3.067a.38.38,0,0,0-.381-.38h-2.844V387.7c0-.862.205-1.3,1.329-1.3h1.629a.381.381,0,0,0,.381-.38v-2.847a.381.381,0,0,0-.38-.381Zm0,0" transform="translate(-276.66 -382.792)" fill="#fff"/>
</svg>
