<svg xmlns="http://www.w3.org/2000/svg" width="363" height="175.024" viewBox="0 0 363 175.024"><defs><style>.a,.b{fill:#1d428a;}.b{font-size:21px;font-family:MarkPro-BoldItalic, Mark Pro;font-weight:700;letter-spacing:-0.02em;font-style:italic;}</style></defs><g transform="translate(-400 -836)"><g transform="translate(400 836)"><g transform="translate(0 79.709)"><path class="a" d="M115.164,403.471v-45.1h11.631v45.1Zm.677-52.875a5.274,5.274,0,1,1,5.274,5.342A5.281,5.281,0,0,1,115.841,350.6Z" transform="translate(-115.164 -345.321)"/><path class="a" d="M168.108,399.271V369.926L156.68,399.271h-5.139l-11.359-29.345v29.345H128.553v-45.1h16.16l9.4,24.477,9.466-24.477h16.159v45.1Z" transform="translate(-108.811 -341.121)"/><path class="a" d="M200.941,399.271l-2.231-6.491H180.927l-2.232,6.491H165.51l16.971-45.1h14.6l17.039,45.1Zm-11.156-33.605-5.748,16.971h11.5Z" transform="translate(-91.275 -341.121)"/><path class="a" d="M240.28,399.271V369.926l-11.426,29.345h-5.14l-11.358-29.345v29.345H200.725v-45.1h16.16l9.4,24.477,9.466-24.477h16.16v45.1Z" transform="translate(-74.566 -341.121)"/><path class="a" d="M239.379,377c0-13.726,10.345-23.328,24.139-23.328s24.071,9.6,24.071,23.328-10.277,23.327-24.071,23.327S239.379,390.721,239.379,377Zm36.377,0c0-7.371-4.8-13.049-12.238-13.049-7.505,0-12.306,5.678-12.306,13.049,0,7.3,4.8,13.049,12.306,13.049C270.955,390.044,275.756,384.3,275.756,377Z" transform="translate(-56.225 -341.361)"/><path class="a" d="M274.5,377c0-14.335,10.954-23.328,24.409-23.328,10.075,0,16.16,5.342,19.27,10.954l-9.736,5.071a11.188,11.188,0,0,0-9.534-5.746c-7.37,0-12.576,5.678-12.576,13.049s5.206,13.049,12.576,13.049a14.3,14.3,0,0,0,8.318-2.7v-3.517H297.085V373.614h21.772v17.918a26.054,26.054,0,0,1-19.947,8.79C285.456,400.322,274.5,391.329,274.5,377Z" transform="translate(-39.559 -341.361)"/><path class="a" d="M309.212,399.271v-45.1h11.631v34.956h18.122v10.143Z" transform="translate(-23.089 -341.121)"/><path class="a" d="M332.46,381.015V354.172h11.833v26.436c0,5.342,3.179,9.2,9.534,9.2,6.221,0,9.466-3.854,9.466-9.2V354.172h11.765v26.775c0,11.224-6.83,19.135-21.231,19.135C339.29,400.082,332.46,392.1,332.46,381.015Z" transform="translate(-12.058 -341.121)"/><rect class="a" width="22.98" height="6.489" transform="translate(246.16 2.507)"/></g><path class="a" d="M435.329,352.7c-4.9,2.3-15.35,5.411-20.711,6.646-2.841.655-2.9.4-2.924.086-.038-.59,2.925-3.542,3.52-5.628a3.1,3.1,0,0,0-3.152-4.168c-1.772,0-5.081,1.339-7.914,3.108-.537-2.812-2.249-4.015-4.808-3.385a12.094,12.094,0,0,0-2.474.9c-1.57.779-3.1,1.643-4.794,2.551.24-.9.473-1.66.643-2.434a3.6,3.6,0,0,0-3.564-4.673,12.007,12.007,0,0,0-3.381.333c-5.855,1.492-11.32,4.042-16.851,6.4-.248.106-1.836.871-2.395,1.087-4.718,1.814-9.375,3.8-14.136,5.493a24.884,24.884,0,0,1-9.64,1.464,7.133,7.133,0,0,1-4.148-1.153c.419-.2.739-.357,1.053-.518,3.244-1.662,5.882-3.918,7.06-7.5,1.221-3.716-.829-7.058-4.468-7.352a10.6,10.6,0,0,0-5.756,1.166c-3.45,1.762-6.035,6.186-5.379,11.287a82.661,82.661,0,0,1-24.8,2.619c-11.992-.7-12.872-4.375-13.161-5.584a3.689,3.689,0,0,1,1.576-4.347,6.283,6.283,0,0,1,3.253-.823,5.24,5.24,0,0,1,3.912,1.637l4.342-3.074a10.3,10.3,0,0,0-8.113-3.881q-.166,0-.327,0a11.306,11.306,0,0,0-4.3.836v0a8.255,8.255,0,0,0-1.256.6,15.9,15.9,0,0,0-3.219,2.361c-1.144-.894-2.308-.939-4.143-.28a10.475,10.475,0,0,0-1.42.6c-2.331,1.253-4.642,2.547-6.977,3.789-6.587,3.5-13.2,6.976-20.366,9.161a34.784,34.784,0,0,1-6.146,1.224c-1.881.217-3.809-.108-4.841-1.942-.955-1.7-1.616-3.562-2.439-5.426a54.912,54.912,0,0,0,13.329-6.737L253.12,342.8c-2.925,1.62-6.293,3.453-9.129,5.024,0,0,8.467-13.259,12.591-19.695l-4.521-2.9L231.99,356.5c-3.116,4.341-6.861,6.943-10.668,7.367a9.5,9.5,0,0,1-7.93-2.952c-2.157-2.144-2.126-6.849-1.635-10.518-2.321-.453-4.68-.911-6.646-1.289a43.866,43.866,0,0,1-2.861,3.99,47.446,47.446,0,0,1-6.9,6.92,61.55,61.55,0,0,1-12,7.114c-7.971,3.736-16.224,6.545-25.1,7.089a23.7,23.7,0,0,1-10.515-1.426,9.572,9.572,0,0,1-6.433-9.789,17.251,17.251,0,0,1,1.818-7.1,34.11,34.11,0,0,1,10.1-11.949c9.682-7.61,20.829-11.992,32.737-14.639,2.247-.5,4.522-.867,6.839-1.306-.212-1.8-.416-3.533-.6-5.124-1.979,0-3.854.056-5.724-.016s-3.748-.2-5.606-.436a23.164,23.164,0,0,1-9.37-3.033c-4.592-2.819-5.528-7.437-2.336-11.771a15.784,15.784,0,0,1,2.33-2.49,27.232,27.232,0,0,1,8.9-4.981,63.49,63.49,0,0,1,29.033-3.063,19.662,19.662,0,0,1,7.971,2.4c2.709,1.618,3.181,3.891,1.028,6.206a15.606,15.606,0,0,1-4.372,3.269,32.233,32.233,0,0,1-6.567,2.42l1.386,5.2a36.578,36.578,0,0,0,8.71-3.431,16.409,16.409,0,0,0,5.743-5.072c2.572-3.761,2.392-8.251-.659-11.2a16.251,16.251,0,0,0-4.27-2.863,30.224,30.224,0,0,0-11.116-2.545c-10.021-.683-19.85.223-29.306,3.825-4.938,1.881-9.454,4.456-12.812,8.686-5.463,6.883-3.959,15.45,3.559,19.963a48.652,48.652,0,0,0,4.988,2.309c.276.125.557.237.95.4-2.551.992-4.969,1.859-7.328,2.865-7.874,3.359-15.189,7.619-21.348,13.651-4.957,4.855-8.856,10.369-9.861,17.442-1.073,7.563,1.955,13.7,9.092,16.851a28.929,28.929,0,0,0,13.394,2.055,66.107,66.107,0,0,0,20.257-4.536q2.975-1.135,5.848-2.448h0a55.794,55.794,0,0,0,21.557-15.917,13,13,0,0,0,3.377,8.067,14.875,14.875,0,0,0,12.268,4.466c5.82-.649,11.32-4.606,15.484-11.144.211-.332.431-.675.647-1.014.768,1.638,1.383,3.179,2.187,4.614a9.484,9.484,0,0,0,8.365,5.069,27.062,27.062,0,0,0,9.83-1.721c8.262-2.766,15.951-6.771,23.526-11.013.4-.226,1.482-.867,1.886-1.093,0,0-1.5,2.229-3.036,4.525-.31.461-.6.9-.867,1.3-.6.9-1.157,1.744-1.582,2.395l4.484,2.945c1.39-2.1,3.433-5.251,5.531-8.064,2.535,6.709,11.181,8.008,17.632,8.383q2.225.128,4.375.125a89.161,89.161,0,0,0,22.691-3.057,11.266,11.266,0,0,0,8.5,4.4c6.233.3,12.119-1.242,17.8-3.5,6.4-2.546,12.673-5.429,19.031-8.095,2.688-1.127,8.2-3.7,8.714-3.262.433.37-1.926,5.5-4.413,7.858.963,1.357,1.974,2.779,3.014,4.245,3.8-2.322,11.912-7.6,12.3-7.415s-1.317,2.259-2.359,3.287c1.1,1.34,2.185,2.663,3.319,4.043,1.261-.885,2.552-1.787,3.841-2.692,1.308-.916,4.556-3.708,4.786-3.548s-.92,1.221-1.491,3.073c-.78,2.527.27,4.238,2.877,4.67a19.407,19.407,0,0,0,4.937.15,59.371,59.371,0,0,0,14.764-3.4c3.018-1.1,5.988-2.337,9.039-3.536C436.866,355.879,436.106,354.307,435.329,352.7Zm-93.576-3.353c1,.986-2.514,4.5-5.447,5.54C335.811,351.182,340.232,347.843,341.753,349.342Z" transform="translate(-105.321 -291.262)"/></g><text class="b" transform="translate(580.135 1007.024)"><tspan x="-175.88" y="0">İstanbul Büyükşehir Belediye Başkanı</tspan></text></g></svg>