<svg xmlns="http://www.w3.org/2000/svg" width="38" height="38" viewBox="0 0 38 38"><defs><style>.a{fill:#08c;}.b{fill:#fff;}</style></defs><g transform="translate(-1691 -4609)"><circle class="a" cx="19" cy="19" r="19" transform="translate(1691 4609)"/><g transform="translate(1704.408 4619.53)"><g transform="translate(11.182 16.938) rotate(180)"><path class="b" d="M8.469,11.182a1.476,1.476,0,0,1-1.186-.559L.508,3.168a1.929,1.929,0,0,1,0-2.609,1.537,1.537,0,0,1,2.371,0l5.59,6.15,5.59-6.15a1.537,1.537,0,0,1,2.371,0,1.929,1.929,0,0,1,0,2.609L9.655,10.623A1.476,1.476,0,0,1,8.469,11.182Z" transform="translate(11.182) rotate(90)"/></g></g></g></svg>