<svg xmlns="http://www.w3.org/2000/svg" width="94" height="94" viewBox="0 0 94 94"><defs><style>.a{opacity:0.6;}.b{fill:#cbd7e2;}</style></defs><g class="a" transform="translate(-77 -2373)"><circle class="b" cx="2" cy="2" r="2" transform="translate(77 2373)"/><circle class="b" cx="2" cy="2" r="2" transform="translate(137 2373)"/><circle class="b" cx="2" cy="2" r="2" transform="translate(127 2373)"/><circle class="b" cx="2" cy="2" r="2" transform="translate(117 2373)"/><circle class="b" cx="2" cy="2" r="2" transform="translate(107 2373)"/><circle class="b" cx="2" cy="2" r="2" transform="translate(97 2373)"/><circle class="b" cx="2" cy="2" r="2" transform="translate(87 2373)"/><circle class="b" cx="2" cy="2" r="2" transform="translate(147 2373)"/><circle class="b" cx="2" cy="2" r="2" transform="translate(157 2373)"/><circle class="b" cx="2" cy="2" r="2" transform="translate(167 2373)"/><g transform="translate(0 10)"><circle class="b" cx="2" cy="2" r="2" transform="translate(77 2373)"/><circle class="b" cx="2" cy="2" r="2" transform="translate(137 2373)"/><circle class="b" cx="2" cy="2" r="2" transform="translate(127 2373)"/><circle class="b" cx="2" cy="2" r="2" transform="translate(117 2373)"/><circle class="b" cx="2" cy="2" r="2" transform="translate(107 2373)"/><circle class="b" cx="2" cy="2" r="2" transform="translate(97 2373)"/><circle class="b" cx="2" cy="2" r="2" transform="translate(87 2373)"/><circle class="b" cx="2" cy="2" r="2" transform="translate(147 2373)"/><circle class="b" cx="2" cy="2" r="2" transform="translate(157 2373)"/><circle class="b" cx="2" cy="2" r="2" transform="translate(167 2373)"/></g><g transform="translate(0 20)"><circle class="b" cx="2" cy="2" r="2" transform="translate(77 2373)"/><circle class="b" cx="2" cy="2" r="2" transform="translate(137 2373)"/><circle class="b" cx="2" cy="2" r="2" transform="translate(127 2373)"/><circle class="b" cx="2" cy="2" r="2" transform="translate(117 2373)"/><circle class="b" cx="2" cy="2" r="2" transform="translate(107 2373)"/><circle class="b" cx="2" cy="2" r="2" transform="translate(97 2373)"/><circle class="b" cx="2" cy="2" r="2" transform="translate(87 2373)"/><circle class="b" cx="2" cy="2" r="2" transform="translate(147 2373)"/><circle class="b" cx="2" cy="2" r="2" transform="translate(157 2373)"/><circle class="b" cx="2" cy="2" r="2" transform="translate(167 2373)"/></g><g transform="translate(0 30)"><circle class="b" cx="2" cy="2" r="2" transform="translate(77 2373)"/><circle class="b" cx="2" cy="2" r="2" transform="translate(137 2373)"/><circle class="b" cx="2" cy="2" r="2" transform="translate(127 2373)"/><circle class="b" cx="2" cy="2" r="2" transform="translate(117 2373)"/><circle class="b" cx="2" cy="2" r="2" transform="translate(107 2373)"/><circle class="b" cx="2" cy="2" r="2" transform="translate(97 2373)"/><circle class="b" cx="2" cy="2" r="2" transform="translate(87 2373)"/><circle class="b" cx="2" cy="2" r="2" transform="translate(147 2373)"/><circle class="b" cx="2" cy="2" r="2" transform="translate(157 2373)"/><circle class="b" cx="2" cy="2" r="2" transform="translate(167 2373)"/></g><g transform="translate(0 40)"><circle class="b" cx="2" cy="2" r="2" transform="translate(77 2373)"/><circle class="b" cx="2" cy="2" r="2" transform="translate(137 2373)"/><circle class="b" cx="2" cy="2" r="2" transform="translate(127 2373)"/><circle class="b" cx="2" cy="2" r="2" transform="translate(117 2373)"/><circle class="b" cx="2" cy="2" r="2" transform="translate(107 2373)"/><circle class="b" cx="2" cy="2" r="2" transform="translate(97 2373)"/><circle class="b" cx="2" cy="2" r="2" transform="translate(87 2373)"/><circle class="b" cx="2" cy="2" r="2" transform="translate(147 2373)"/><circle class="b" cx="2" cy="2" r="2" transform="translate(157 2373)"/><circle class="b" cx="2" cy="2" r="2" transform="translate(167 2373)"/></g><g transform="translate(0 50)"><circle class="b" cx="2" cy="2" r="2" transform="translate(77 2373)"/><circle class="b" cx="2" cy="2" r="2" transform="translate(137 2373)"/><circle class="b" cx="2" cy="2" r="2" transform="translate(127 2373)"/><circle class="b" cx="2" cy="2" r="2" transform="translate(117 2373)"/><circle class="b" cx="2" cy="2" r="2" transform="translate(107 2373)"/><circle class="b" cx="2" cy="2" r="2" transform="translate(97 2373)"/><circle class="b" cx="2" cy="2" r="2" transform="translate(87 2373)"/><circle class="b" cx="2" cy="2" r="2" transform="translate(147 2373)"/><circle class="b" cx="2" cy="2" r="2" transform="translate(157 2373)"/><circle class="b" cx="2" cy="2" r="2" transform="translate(167 2373)"/></g><g transform="translate(0 60)"><circle class="b" cx="2" cy="2" r="2" transform="translate(77 2373)"/><circle class="b" cx="2" cy="2" r="2" transform="translate(137 2373)"/><circle class="b" cx="2" cy="2" r="2" transform="translate(127 2373)"/><circle class="b" cx="2" cy="2" r="2" transform="translate(117 2373)"/><circle class="b" cx="2" cy="2" r="2" transform="translate(107 2373)"/><circle class="b" cx="2" cy="2" r="2" transform="translate(97 2373)"/><circle class="b" cx="2" cy="2" r="2" transform="translate(87 2373)"/><circle class="b" cx="2" cy="2" r="2" transform="translate(147 2373)"/><circle class="b" cx="2" cy="2" r="2" transform="translate(157 2373)"/><circle class="b" cx="2" cy="2" r="2" transform="translate(167 2373)"/></g><g transform="translate(0 70)"><circle class="b" cx="2" cy="2" r="2" transform="translate(77 2373)"/><circle class="b" cx="2" cy="2" r="2" transform="translate(137 2373)"/><circle class="b" cx="2" cy="2" r="2" transform="translate(127 2373)"/><circle class="b" cx="2" cy="2" r="2" transform="translate(117 2373)"/><circle class="b" cx="2" cy="2" r="2" transform="translate(107 2373)"/><circle class="b" cx="2" cy="2" r="2" transform="translate(97 2373)"/><circle class="b" cx="2" cy="2" r="2" transform="translate(87 2373)"/><circle class="b" cx="2" cy="2" r="2" transform="translate(147 2373)"/><circle class="b" cx="2" cy="2" r="2" transform="translate(157 2373)"/><circle class="b" cx="2" cy="2" r="2" transform="translate(167 2373)"/></g><g transform="translate(0 80)"><circle class="b" cx="2" cy="2" r="2" transform="translate(77 2373)"/><circle class="b" cx="2" cy="2" r="2" transform="translate(137 2373)"/><circle class="b" cx="2" cy="2" r="2" transform="translate(127 2373)"/><circle class="b" cx="2" cy="2" r="2" transform="translate(117 2373)"/><circle class="b" cx="2" cy="2" r="2" transform="translate(107 2373)"/><circle class="b" cx="2" cy="2" r="2" transform="translate(97 2373)"/><circle class="b" cx="2" cy="2" r="2" transform="translate(87 2373)"/><circle class="b" cx="2" cy="2" r="2" transform="translate(147 2373)"/><circle class="b" cx="2" cy="2" r="2" transform="translate(157 2373)"/><circle class="b" cx="2" cy="2" r="2" transform="translate(167 2373)"/></g><g transform="translate(0 90)"><circle class="b" cx="2" cy="2" r="2" transform="translate(77 2373)"/><circle class="b" cx="2" cy="2" r="2" transform="translate(137 2373)"/><circle class="b" cx="2" cy="2" r="2" transform="translate(127 2373)"/><circle class="b" cx="2" cy="2" r="2" transform="translate(117 2373)"/><circle class="b" cx="2" cy="2" r="2" transform="translate(107 2373)"/><circle class="b" cx="2" cy="2" r="2" transform="translate(97 2373)"/><circle class="b" cx="2" cy="2" r="2" transform="translate(87 2373)"/><circle class="b" cx="2" cy="2" r="2" transform="translate(147 2373)"/><circle class="b" cx="2" cy="2" r="2" transform="translate(157 2373)"/><circle class="b" cx="2" cy="2" r="2" transform="translate(167 2373)"/></g></g></svg>