<svg xmlns="http://www.w3.org/2000/svg" width="74.8" height="74.801" viewBox="0 0 74.8 74.801"><defs><style>.a{fill:#00347a;}</style></defs><path class="a" d="M201.806,168.642l-.093.976a4.053,4.053,0,0,0-.555-.183c-.089-.02-.176-.036-.261-.047a2.014,2.014,0,0,0-.254-.016,1.2,1.2,0,0,0-.6.123.372.372,0,0,0-.215.333.36.36,0,0,0,.109.258.833.833,0,0,0,.33.188l.209.066a4.02,4.02,0,0,1,1.077.463,1.164,1.164,0,0,1,.364.44,1.365,1.365,0,0,1,.118.582,1.436,1.436,0,0,1-.519,1.191,2.358,2.358,0,0,1-1.5.415,5.163,5.163,0,0,1-.708-.05,5.4,5.4,0,0,1-.715-.149l.106-1.054a3.556,3.556,0,0,0,.645.23,2.638,2.638,0,0,0,.3.057,2.195,2.195,0,0,0,.293.02,1.07,1.07,0,0,0,.586-.14.431.431,0,0,0,.217-.379q0-.294-.69-.536l-.256-.09a2.379,2.379,0,0,1-.963-.561,1.186,1.186,0,0,1-.29-.825,1.29,1.29,0,0,1,.511-1.093,2.375,2.375,0,0,1,1.457-.386,4.909,4.909,0,0,1,.672.043c.109.014.213.03.314.05s.2.045.308.076m3.22.9H206.2v3.78h1.261v-3.78h1.171v-.947h-3.6Zm9.133,1.88h-1.205l.613-1.771Zm-3.12,1.9h1.247l.353-1h1.819l.336,1h1.346l-1.789-4.727h-1.52Zm8.025,0H220.2v-2.5c0-.082,0-.182-.01-.3s-.014-.225-.024-.323q-.023-.249-.043-.406t-.053-.372q.084.306.153.519a4.281,4.281,0,0,0,.183.439l1.422,2.938H223.4v-4.727h-1.138v2.678c0,.15.01.326.028.526s.048.417.089.651c-.038-.113-.076-.227-.113-.342-.051-.155-.082-.249-.094-.279a4.2,4.2,0,0,0-.163-.4l-1.37-2.835h-1.573Zm9.673-1.982a.9.9,0,0,1,.545.138.478.478,0,0,1,.183.407.485.485,0,0,1-.2.421.994.994,0,0,1-.585.144h-.5v-1.11Zm-.11-1.893a.978.978,0,0,1,.55.128.434.434,0,0,1,.186.382.463.463,0,0,1-.2.411,1.068,1.068,0,0,1-.6.135h-.383v-1.055Zm-1.675,3.876h1.838a2.655,2.655,0,0,0,1.466-.321,1.107,1.107,0,0,0,.475-.986,1.069,1.069,0,0,0-.262-.741,1.284,1.284,0,0,0-.745-.383,1.277,1.277,0,0,0,.658-.389,1.024,1.024,0,0,0,.227-.682,1.053,1.053,0,0,0-.434-.917,2.23,2.23,0,0,0-1.289-.308h-1.935Zm7.155-1.976a2.159,2.159,0,0,0,.508,1.561,2.448,2.448,0,0,0,3.022,0,2.174,2.174,0,0,0,.5-1.566v-2.751h-1.2v2.752a1.46,1.46,0,0,1-.208.853.7.7,0,0,1-.61.291.638.638,0,0,1-.576-.272,1.629,1.629,0,0,1-.18-.872v-2.752h-1.259Zm7.583,1.976h3.159v-.933h-1.9v-3.794h-1.26Zm-47.848-5.147H195.1v-.63h-1.261Zm0,5.147H195.1v-4.727h-1.261Zm-6.01,8.43a1.789,1.789,0,0,1,.44,1.241,1.853,1.853,0,0,1-.8,1.65,4.445,4.445,0,0,1-2.453.538h-3.077v-7.911h3.239a3.722,3.722,0,0,1,2.156.515,1.759,1.759,0,0,1,.726,1.534,1.713,1.713,0,0,1-.379,1.142,2.133,2.133,0,0,1-1.1.651,2.141,2.141,0,0,1,1.246.64m-3.824-1.291h.641a1.791,1.791,0,0,0,1-.226.776.776,0,0,0,.331-.688.723.723,0,0,0-.312-.638,1.623,1.623,0,0,0-.919-.215h-.741Zm2.143,2.314a.8.8,0,0,0-.306-.681,1.5,1.5,0,0,0-.913-.231h-.924v1.858h.829a1.661,1.661,0,0,0,.977-.242.812.812,0,0,0,.337-.7M201.3,180.61l-1.58-3.341h-2.393l2.838,4.971v2.94h2.109v-2.962l2.872-4.949h-2.271Zm9.436,1.264a2.447,2.447,0,0,1-.348,1.428,1.177,1.177,0,0,1-1.022.488,1.067,1.067,0,0,1-.963-.457,2.72,2.72,0,0,1-.3-1.458v-4.605H206v4.6a3.613,3.613,0,0,0,.851,2.613,4.1,4.1,0,0,0,5.057.009,3.638,3.638,0,0,0,.84-2.622v-4.6h-2.006Zm.989-6.362h-2v1.054h2Zm-2.71,0h-2v1.054h2Zm-16.262,0h-2v1.054h2Zm1.721,6.362a2.447,2.447,0,0,1-.348,1.428,1.176,1.176,0,0,1-1.022.488,1.068,1.068,0,0,1-.963-.457,2.728,2.728,0,0,1-.3-1.458v-4.605h-2.109v4.6a3.615,3.615,0,0,0,.85,2.613,4.1,4.1,0,0,0,5.057.009,3.639,3.639,0,0,0,.84-2.622v-4.6h-2.006Zm.989-6.362h-2v1.054h2Zm26.155,1.757h-2.36l-2.449,3.42v-3.42H214.7v7.911h2.109v-3.671l2.487,3.671h2.622l-3.207-4.275Zm10.444,4.583h3.195v-1.5h-3.195v-1.6h3.384v-1.482h-5.492v7.911h5.62v-1.528h-3.512Zm9.885-1.562h-2.462v-3.021h-2.108v7.911h2.108v-3.306h2.462v3.306h2.109v-7.911h-2.109Zm4.084-3.723h2.109v-1.054h-2.109Zm0,8.614h2.109v-7.911h-2.109Zm10.713,0h-2.2l-.7-2.165a1.365,1.365,0,0,0-.454-.721,1.588,1.588,0,0,0-.9-.2h-.306v3.089h-2.063v-7.911h3.145a4.249,4.249,0,0,1,2.332.507,1.739,1.739,0,0,1,.757,1.553,1.934,1.934,0,0,1-.4,1.255,2.025,2.025,0,0,1-1.161.671,1.965,1.965,0,0,1,1,1.3Zm-2.451-5.484a.873.873,0,0,0-.381-.786,2.242,2.242,0,0,0-1.2-.251h-.523v2.029h.74a1.743,1.743,0,0,0,1.03-.248.862.862,0,0,0,.339-.744m-26.654,1.269a6.735,6.735,0,0,0-1.8-.775l-.35-.111a1.393,1.393,0,0,1-.554-.315.6.6,0,0,1-.18-.432.623.623,0,0,1,.359-.557,2.016,2.016,0,0,1,1-.207,3.166,3.166,0,0,1,.425.028c.143.018.289.044.437.077a6.87,6.87,0,0,1,.929.306l.155-1.632c-.174-.052-.346-.095-.514-.128s-.344-.061-.526-.084a8.176,8.176,0,0,0-1.124-.072,3.976,3.976,0,0,0-2.439.647,2.16,2.16,0,0,0-.854,1.829,1.979,1.979,0,0,0,.487,1.38,3.952,3.952,0,0,0,1.61.94l.429.15q1.156.408,1.157.9a.721.721,0,0,1-.365.635,1.794,1.794,0,0,1-.982.234,3.739,3.739,0,0,1-.489-.033,4.683,4.683,0,0,1-.507-.095,5.972,5.972,0,0,1-1.078-.385l-.179,1.764a9.062,9.062,0,0,0,1.2.25c.224.031.446.051.667.065l-.084.89h2l.1-1.062a2.929,2.929,0,0,0,1.015-.494,2.428,2.428,0,0,0,.867-2,2.282,2.282,0,0,0-.2-.975,1.966,1.966,0,0,0-.609-.735m-30.233,10.846a1.069,1.069,0,0,1,.262.742,1.109,1.109,0,0,1-.476.987,2.659,2.659,0,0,1-1.467.321h-1.84V189.13h1.937a2.225,2.225,0,0,1,1.29.309,1.051,1.051,0,0,1,.435.917,1.029,1.029,0,0,1-.226.683,1.28,1.28,0,0,1-.659.39,1.278,1.278,0,0,1,.745.382m-2.287-.772h.383a1.072,1.072,0,0,0,.6-.135.465.465,0,0,0,.2-.412.433.433,0,0,0-.187-.382.972.972,0,0,0-.549-.129h-.443Zm1.282,1.384a.479.479,0,0,0-.183-.407.9.9,0,0,0-.546-.139h-.552v1.112h.5a.994.994,0,0,0,.584-.145.488.488,0,0,0,.2-.421m4.75-.552h1.911v-.9h-1.911v-.954h2.024v-.887h-3.284v4.731h3.361v-.913h-2.1Zm5.8-2.741h-1.261v4.731h3.161v-.934h-1.9Zm5.235,2.741h1.91v-.9h-1.91v-.954h2.023v-.887h-3.285v4.731h3.361v-.913h-2.1Zm8.628-1.572a2.5,2.5,0,0,1,.263,1.169,2.616,2.616,0,0,1-.272,1.243,2.165,2.165,0,0,1-.839.844,2.131,2.131,0,0,1-.715.233q-.21.033-.513.053t-.659.02h-1.5V189.13h1.658a6.01,6.01,0,0,1,1.088.082,2.14,2.14,0,0,1,.713.251,2.174,2.174,0,0,1,.778.836m-1.033,1.17a1.411,1.411,0,0,0-.377-1.052,1.471,1.471,0,0,0-1.08-.373h-.479v2.87h.546a1.356,1.356,0,0,0,1.028-.378,1.477,1.477,0,0,0,.362-1.067m8.488-.34-.945-2h-1.431l1.7,2.973v1.758h1.262V192.09l1.718-2.96H229.21Zm5.313.742h1.911v-.9h-1.911v-.954H235.6v-.887H232.32v4.731h3.361v-.913h-2.1Zm7.285-.53a4.017,4.017,0,0,0-1.078-.463l-.21-.066a.83.83,0,0,1-.331-.189.357.357,0,0,1-.109-.258.375.375,0,0,1,.215-.334,1.205,1.205,0,0,1,.6-.123,2,2,0,0,1,.255.016c.085.012.173.027.261.047a3.913,3.913,0,0,1,.555.183l.093-.977c-.1-.031-.207-.057-.307-.076s-.206-.037-.315-.05a4.9,4.9,0,0,0-.672-.044,2.379,2.379,0,0,0-1.459.387,1.291,1.291,0,0,0-.511,1.094,1.182,1.182,0,0,0,.291.825,2.359,2.359,0,0,0,.963.562l.256.09q.692.244.692.537a.432.432,0,0,1-.218.38,1.073,1.073,0,0,1-.587.14,2.2,2.2,0,0,1-.293-.02,2.8,2.8,0,0,1-.3-.057,3.551,3.551,0,0,1-.645-.23l-.107,1.055a5.379,5.379,0,0,0,.715.15,5.133,5.133,0,0,0,.709.05,2.364,2.364,0,0,0,1.5-.415,1.437,1.437,0,0,0,.519-1.191,1.361,1.361,0,0,0-.118-.584,1.175,1.175,0,0,0-.364-.44m-17.8,2.52h1.261v-4.731h-1.261Zm0-5.151h1.261v-.63h-1.261Zm20.481,0H244.8v-.63h-1.261Zm0,5.151H244.8v-4.731h-1.261Zm-32.615-45.667v-1.212h-1.212v1.212H208.5v-1.212h-1.212v1.212H206.08v-1.212h-1.212v1.212a14.477,14.477,0,0,0,13.805,14.461v-6.07a8.418,8.418,0,0,1-7.745-8.39m21.682-1.212h1.212v1.212a14.477,14.477,0,0,1-13.8,14.461v-6.07a8.417,8.417,0,0,0,7.745-8.39v-1.212h1.212v1.212h1.211v-1.212H231.4v1.212h1.212Zm-20.337-5.562h-7.378a3.8,3.8,0,0,1,7.378,0m14.145,0a3.8,3.8,0,0,1,7.377,0Zm-14.145,4.563h-8.748a4.5,4.5,0,0,1,8.748,0m18.519-3.434a4.5,4.5,0,0,1,4.374,3.434h-8.748a4.5,4.5,0,0,1,4.374-3.434m-4.379,5.736h0V137.411l1.01-1V135.4h-1.01v-4.074l-1.01-6.06-1.01,6.06V135.4h-2.02v-4.081l1.01-1V129.3h-1.01v-4.073l-1.01-6.061-1.01,6.061V129.3h-2.02v-4.073l-1.01-6.061-1.01,6.061V129.3H215.3v1.01l1.01,1V135.4H214.3v-4.074l-1.01-6.06-1.01,6.06V135.4h-1.01v1.01l1.01,1v10.783a7.069,7.069,0,0,0,14.138.092m-1.317,1.022h-3.824L223.184,146Zm-2.721-11.9,1.01-1,1.01,1v5.837a7.08,7.08,0,0,0-2.02-1.442Zm-1.111,5.262,1.912,3.311h-3.824Zm-2.929-11.356,1.01-1,1.01,1V135.4h-2.02Zm0,6.094,1.01-1,1.01,1V141.2a7.011,7.011,0,0,0-2.02,0Zm-.91,5.262,1.912,3.311h-3.824Zm-3.13-5.262,1.01-1,1.01,1v4.395a7.067,7.067,0,0,0-2.02,1.442Zm-.7,11.9L215.506,146l1.911,3.311Zm1.92,3.325,1.911-3.312,1.912,3.312Zm1.92-3.325L219.345,146l1.912,3.311Zm1.92,3.325,1.911-3.312,1.912,3.312Z" transform="translate(-181.945 -119.17)"/></svg>