<svg xmlns="http://www.w3.org/2000/svg" width="18.196" height="18.196" viewBox="0 0 18.196 18.196">
  <g id="Group_6410" data-name="Group 6410" transform="translate(-1539.115 -16)">
    <path id="Path_7443" data-name="Path 7443" d="M133.96,121h-7.724A5.242,5.242,0,0,0,121,126.236v7.724a5.242,5.242,0,0,0,5.236,5.236h7.724a5.242,5.242,0,0,0,5.236-5.236v-7.724A5.242,5.242,0,0,0,133.96,121Zm3.434,5.236v7.724a3.438,3.438,0,0,1-3.434,3.434h-7.724a3.438,3.438,0,0,1-3.434-3.434v-7.724a3.438,3.438,0,0,1,3.434-3.433h7.724A3.438,3.438,0,0,1,137.393,126.236Z" transform="translate(1418.115 -105)" fill="#fff"/>
    <path id="Path_7444" data-name="Path 7444" d="M187.745,183.021a4.724,4.724,0,1,0,4.724,4.724A4.729,4.729,0,0,0,187.745,183.021Zm2.921,4.724a2.921,2.921,0,1,1-2.921-2.921A2.925,2.925,0,0,1,190.666,187.745Z" transform="translate(1360.469 -162.647)" fill="#fff"/>
    <path id="Path_7445" data-name="Path 7445" d="M301.6,163.65a1.236,1.236,0,1,0,1.236,1.236A1.238,1.238,0,0,0,301.6,163.65Z" transform="translate(1251.406 -144.642)" fill="#fff"/>
  </g>
</svg>
