<svg xmlns="http://www.w3.org/2000/svg" xmlns:xlink="http://www.w3.org/1999/xlink" width="87" height="74" viewBox="0 0 87.1 74"><defs><style>.a,.d,.o,.p{fill:none;}.b{clip-path:url(#a);}.c,.g{fill:#fff;}.c,.e,.m{fill-rule:evenodd;}.d{stroke:#4a1971;stroke-width:0.155px;}.d,.o,.p{stroke-miterlimit:10;}.e,.n{fill:#002e71;}.f{fill:#005fab;}.h{fill:#ffc300;}.i{fill:#00a0cb;}.j{fill:#ea5d00;}.k{fill:#c20072;}.l{fill:#db1878;}.m{fill:#f3f9fa;}.o,.p{stroke:#fff;}.o{stroke-linecap:round;stroke-width:0.132px;}.p{stroke-width:0.067px;}</style><clipPath id="a"><rect class="a" width="87.797" height="74" transform="translate(0)"/></clipPath></defs><g transform="translate(-124.406 -269.757)"><g class="b" transform="translate(124.406 269.757)"><path class="c" d="M230.238,308.664q0,.385-.009.77a35.728,35.728,0,0,1-5.21,17.887q-.321.529-.661,1.044-.782,1.191-1.655,2.314a36.152,36.152,0,0,1-6.271,6.293q-.689.539-1.4,1.044a35.865,35.865,0,0,1-41.421,0q-.715-.5-1.4-1.044a36.166,36.166,0,0,1-6.27-6.293q-.871-1.123-1.655-2.314c-.226-.344-.447-.692-.661-1.044a35.729,35.729,0,0,1-5.21-17.887q-.009-.384-.009-.77c0-.284,0-.567.011-.851,0-.1,0-.205.008-.308q.026-.814.087-1.62a35.685,35.685,0,0,1,1.361-7.415q.242-.819.522-1.62c.036-.1.072-.206.109-.308q.293-.821.626-1.62a35.934,35.934,0,0,1,66.392,0q.331.8.626,1.62c.037.1.073.2.109.308q.28.8.522,1.62a35.685,35.685,0,0,1,1.361,7.415q.061.806.088,1.62c0,.1.006.205.008.308.008.283.011.566.011.851" transform="translate(-150.064 -272.012)"/><path class="d" d="M230.238,308.664q0,.385-.009.77a35.728,35.728,0,0,1-5.21,17.887q-.321.529-.661,1.044-.782,1.191-1.655,2.314a36.152,36.152,0,0,1-6.271,6.293q-.689.539-1.4,1.044a35.865,35.865,0,0,1-41.421,0q-.715-.5-1.4-1.044a36.166,36.166,0,0,1-6.27-6.293q-.871-1.123-1.655-2.314c-.226-.344-.447-.692-.661-1.044a35.729,35.729,0,0,1-5.21-17.887q-.009-.384-.009-.77c0-.284,0-.567.011-.851,0-.1,0-.205.008-.308q.026-.814.087-1.62a35.685,35.685,0,0,1,1.361-7.415q.242-.819.522-1.62c.036-.1.072-.206.109-.308q.293-.821.626-1.62a35.934,35.934,0,0,1,66.392,0q.331.8.626,1.62c.037.1.073.2.109.308q.28.8.522,1.62a35.685,35.685,0,0,1,1.361,7.415q.061.806.088,1.62c0,.1.006.205.008.308C230.236,308.1,230.238,308.38,230.238,308.664Z" transform="translate(-150.064 -272.012)"/><path class="e" d="M235.232,316.06q0,.36-.008.718a33.339,33.339,0,0,1-4.861,16.69q-.3.494-.616.974-.73,1.112-1.545,2.159a33.72,33.72,0,0,1-5.851,5.872q-.643.5-1.31.974a33.47,33.47,0,0,1-38.651,0q-.667-.472-1.31-.974a33.709,33.709,0,0,1-5.851-5.872q-.813-1.047-1.545-2.159-.316-.481-.617-.974a33.344,33.344,0,0,1-4.861-16.69q-.008-.358-.008-.718c0-.265,0-.529.01-.794,0-.1,0-.191.007-.288q.025-.76.082-1.512a33.3,33.3,0,0,1,1.27-6.919q.227-.764.487-1.512c.034-.1.067-.193.1-.288q.274-.765.584-1.512a33.531,33.531,0,0,1,61.951,0q.309.748.584,1.512c.035.1.068.192.1.288q.261.747.486,1.512a33.284,33.284,0,0,1,1.27,6.919q.057.752.082,1.512c0,.1.005.192.008.288q.01.4.01.794" transform="translate(-157.46 -279.408)"/><path class="f" d="M245.722,328.457a25.341,25.341,0,0,0-10.282-6.943.761.761,0,0,0-1.016.717v2.117a.76.76,0,0,0,.481.707,21.83,21.83,0,1,1-15.767-.142.76.76,0,0,0,.494-.712v-2.1a.761.761,0,0,0-1-.722,25.37,25.37,0,1,0,27.094,7.082" transform="translate(-182.58 -308.687)"/><path class="g" d="M290,297.966V297.4l-.139-.835-.14.835v.561h-.278V297.4l.139-.138v-.139h-.139v-.561l-.139-.835-.139.835v.561h-.278v-.561l-.139-.835-.139.835v.561h-.139v.139l.139.138v.562h-.278V297.4l-.139-.835-.139.835v.561h-.139v.139l.139.138v1.485a.974.974,0,0,0,1.947.013h0v-1.5l.139-.138v-.139Zm-.557.277.139-.138.139.138v.8a.955.955,0,0,0-.278-.2Zm-.153.725.264.456h-.526Zm-.4-1.564.139-.138.139.138v.562h-.278Zm0,.839.139-.138.139.138v.522a.964.964,0,0,0-.278,0Zm-.126.725.264.456H288.5Zm-.431-.725.139-.138.139.138v.606a.973.973,0,0,0-.278.2Zm-.1,1.639.263-.456.264.456Zm.264.458.264-.456.264.456Zm.265-.458.263-.456.263.456Zm.264.458.263-.456.264.456Zm.264-.458.264-.456.263.456Zm1.312-.931a.621.621,0,0,0-.6.473h1.205a.621.621,0,0,0-.6-.473m-3.154,0a.62.62,0,0,0-.6.473h1.2a.62.62,0,0,0-.6-.473m3.059-.555a.523.523,0,0,0-.508.4h1.017a.524.524,0,0,0-.509-.4m-2.965,0a.523.523,0,0,0-.508.4h1.016a.523.523,0,0,0-.508-.4m3.309,1.165v.167h-.166v-.167h-.167v.167h-.167v-.167h-.167v.167a1.16,1.16,0,0,1-1.067,1.156v.836a1.994,1.994,0,0,0,1.9-1.992v-.167Zm-2.986.167v-.167H287.7v.167h-.168v-.167h-.166v.167H287.2v-.167h-.167v.167a1.993,1.993,0,0,0,1.9,1.992v-.836a1.16,1.16,0,0,1-1.067-1.156m4.493,6.291h.173v-.652h-.173Zm0-.71h.173v-.087h-.173Zm-2.821,0h.174v-.087h-.174Zm0,.71h.174v-.652h-.174Zm2.5-.287a.166.166,0,0,0-.051-.061.541.541,0,0,0-.149-.064l-.029-.01a.117.117,0,0,1-.045-.026.05.05,0,0,1,.015-.082.163.163,0,0,1,.082-.016l.035,0,.036.007a.575.575,0,0,1,.077.025l.013-.135a.372.372,0,0,0-.043-.01l-.043-.007a.734.734,0,0,0-.092-.006.328.328,0,0,0-.2.053.177.177,0,0,0-.07.15.164.164,0,0,0,.04.114.338.338,0,0,0,.133.077l.036.013q.1.033.1.074a.059.059,0,0,1-.03.052.143.143,0,0,1-.081.02.245.245,0,0,1-.04,0l-.042-.008a.476.476,0,0,1-.089-.032l-.015.145a.634.634,0,0,0,.1.021.742.742,0,0,0,.1.007.325.325,0,0,0,.207-.058.2.2,0,0,0,.072-.164.188.188,0,0,0-.016-.08m-1.054.161v-.149h.263v-.124h-.263v-.131h.279v-.122h-.453v.652h.463v-.126Zm-.6-.526-.13.275-.13-.275h-.2l.234.409v.243h.173v-.244l.237-.408Zm-1.157.161a.3.3,0,0,0-.107-.115.277.277,0,0,0-.1-.035.839.839,0,0,0-.15-.012h-.228v.652h.207l.091,0,.071-.007a.286.286,0,0,0,.1-.033.292.292,0,0,0,.115-.116.361.361,0,0,0,.038-.171.34.34,0,0,0-.036-.161m-.192.308a.186.186,0,0,1-.141.052h-.075v-.4h.066a.2.2,0,0,1,.149.052.192.192,0,0,1,.052.144.2.2,0,0,1-.05.147m-1,.057v-.149h.264v-.124h-.264v-.131h.279v-.122h-.452v.652h.463v-.126Zm-.721,0v-.524h-.174v.652h.435v-.128Zm-.8,0v-.149h.264v-.124h-.264v-.131h.279v-.122h-.452v.652h.463v-.126Zm-.515-.157a.173.173,0,0,0-.1-.053.176.176,0,0,0,.09-.054.141.141,0,0,0,.031-.094.145.145,0,0,0-.059-.126.308.308,0,0,0-.178-.043h-.267v.652h.254a.363.363,0,0,0,.2-.045.15.15,0,0,0,.066-.136.148.148,0,0,0-.036-.1m-.315-.252h.061a.134.134,0,0,1,.076.017.06.06,0,0,1,.026.053.066.066,0,0,1-.027.057.152.152,0,0,1-.082.018h-.053Zm.149.394a.14.14,0,0,1-.081.019h-.068v-.153h.076a.122.122,0,0,1,.075.019.066.066,0,0,1,.025.056.069.069,0,0,1-.027.059m4.415-1.535a.27.27,0,0,0-.084-.1.927.927,0,0,0-.248-.107l-.048-.015a.181.181,0,0,1-.077-.043.083.083,0,0,1-.025-.06.086.086,0,0,1,.049-.077.283.283,0,0,1,.138-.028.581.581,0,0,1,.058,0l.06.011a1.044,1.044,0,0,1,.128.042l.022-.224a.682.682,0,0,0-.071-.018c-.023,0-.048-.009-.073-.011a1.023,1.023,0,0,0-.154-.01.549.549,0,0,0-.336.089.3.3,0,0,0-.118.252.271.271,0,0,0,.067.19.547.547,0,0,0,.222.13l.059.02q.159.057.159.124a.1.1,0,0,1-.05.088.249.249,0,0,1-.136.032.553.553,0,0,1-.067,0,.6.6,0,0,1-.069-.013.864.864,0,0,1-.149-.053l-.025.243a1.317,1.317,0,0,0,.165.035c.031,0,.061.007.091.009l-.012.123h.276l.014-.147a.4.4,0,0,0,.14-.068.334.334,0,0,0,.119-.276.315.315,0,0,0-.027-.134m3.8.118a.272.272,0,0,0-.138-.179.276.276,0,0,0,.16-.092.263.263,0,0,0,.055-.173.24.24,0,0,0-.1-.214.588.588,0,0,0-.321-.07h-.434v1.09h.284V304.4h.043a.224.224,0,0,1,.124.027.191.191,0,0,1,.063.1l.1.3h.3Zm-.255-.291a.244.244,0,0,1-.142.034h-.1v-.28h.072a.309.309,0,0,1,.166.035.138.138,0,0,1,.006.211m-1.091.653H293v-1.09h-.29Zm0-1.187H293v-.145h-.29Zm-.563.1v.416H291.8v-.416h-.291v1.09h.291v-.456h.339v.456h.291v-1.09Zm-1.362.879v-.248h.44v-.207h-.44v-.22h.467v-.2h-.757v1.09h.774v-.211Zm-1.838-.379.4-.5h-.325l-.337.471v-.471h-.291v1.09h.291v-.506l.342.506h.361Zm-3.479-.6h.276v-.145h-.276Zm.14.1v.634a.341.341,0,0,1-.048.2.162.162,0,0,1-.141.067.145.145,0,0,1-.132-.064.366.366,0,0,1-.042-.2v-.634h-.29v.634a.5.5,0,0,0,.117.36.564.564,0,0,0,.7,0,.5.5,0,0,0,.115-.361v-.634Zm-.513-.1h.276v-.145h-.276Zm2.24,0h.276v-.145h-.276Zm.373,0h.276v-.145H287.7Zm.139.1v.634a.34.34,0,0,1-.048.2.161.161,0,0,1-.141.067.145.145,0,0,1-.132-.064.364.364,0,0,1-.042-.2v-.634h-.29v.634a.5.5,0,0,0,.117.36.564.564,0,0,0,.7,0,.5.5,0,0,0,.115-.361v-.634Zm-1.083,0-.217.46-.218-.46H286l.391.685v.405h.29v-.408l.4-.682Zm-2.072.617a.106.106,0,1,1-.02-.178.237.237,0,0,0,.052-.157.242.242,0,0,0-.1-.212.514.514,0,0,0-.3-.071h-.446v1.09h.424a.607.607,0,0,0,.338-.074.253.253,0,0,0,.11-.227.247.247,0,0,0-.061-.171m-.526-.421h.1a.221.221,0,0,1,.127.03.1.1,0,0,1,.043.087.108.108,0,0,1-.045.1.253.253,0,0,1-.138.031h-.088Zm.249.659a.229.229,0,0,1-.135.034h-.114v-.256h.127a.21.21,0,0,1,.126.032.124.124,0,0,1,0,.191m1.106-1.4h.173v-.652h-.173Zm0-.709h.173v-.087h-.173Zm6.764.581v-.523h-.174v.652h.435v-.129Zm-.828-.523v.379a.2.2,0,0,1-.028.118.1.1,0,0,1-.084.04.088.088,0,0,1-.079-.038.225.225,0,0,1-.025-.12v-.379h-.173v.379a.3.3,0,0,0,.07.215.335.335,0,0,0,.416,0,.3.3,0,0,0,.07-.216v-.379Zm-.891.369a.063.063,0,1,1-.012-.106.161.161,0,0,0-.029-.22.307.307,0,0,0-.178-.043h-.266v.652h.253a.362.362,0,0,0,.2-.044.152.152,0,0,0,.066-.136.149.149,0,0,0-.036-.1m-.315-.251h.062a.136.136,0,0,1,.075.017.061.061,0,0,1,.026.053.064.064,0,0,1-.027.056.142.142,0,0,1-.082.019h-.053Zm.149.393a.137.137,0,0,1-.08.02h-.069v-.153h.077a.127.127,0,0,1,.075.019.067.067,0,0,1,.025.056.065.065,0,0,1-.027.058m-.965-.511v.369q0,.031,0,.072c0,.028.006.058.012.09l-.015-.048-.013-.038c-.01-.025-.017-.043-.023-.055l-.189-.391h-.216v.652h.156v-.344c0-.012,0-.025,0-.041s0-.031,0-.045l-.006-.056c0-.014,0-.032-.007-.051.007.028.014.052.021.071a.592.592,0,0,0,.025.061l.2.4h.216v-.652Zm-1.089,0h-.209l-.247.652h.172l.048-.138h.251l.046.138h.186Zm-.193.39.085-.244.081.244Zm-1.092-.39v.131h.161v.521h.174v-.521h.161v-.131Zm-.428.365a.154.154,0,0,0-.051-.06.551.551,0,0,0-.148-.064l-.029-.009a.121.121,0,0,1-.046-.026.05.05,0,0,1-.015-.036.052.052,0,0,1,.029-.045.164.164,0,0,1,.083-.018l.035,0,.036.007a.583.583,0,0,1,.076.025l.013-.134-.043-.01-.043-.007a.777.777,0,0,0-.092-.006.33.33,0,0,0-.2.053.176.176,0,0,0-.07.15.162.162,0,0,0,.039.114.334.334,0,0,0,.133.078l.035.012q.1.033.1.074a.058.058,0,0,1-.03.052.146.146,0,0,1-.081.02l-.04,0-.042-.007a.594.594,0,0,1-.089-.032l-.014.145a.732.732,0,0,0,.1.02.634.634,0,0,0,.1.008.326.326,0,0,0,.207-.057.2.2,0,0,0,.071-.164.193.193,0,0,0-.016-.081" transform="translate(-244.775 -289.362)"/><path class="g" d="M295.12,408.064l-3.256,8.921-3.257-8.921h-3.929l4.973,12.453h4.368l4.972-12.453Z" transform="translate(-245.379 -374.151)"/><path class="g" d="M263.336,417.51v-1.788h4.988l-1.2-3.006h-3.788v-1.645h3.131l-1.2-3.007h-5.635v12.453h10.608l-1.2-3.007Z" transform="translate(-226.474 -374.151)"/><path class="g" d="M333.949,422.4,332,427.292v4.044h4.365V422.4Z" transform="translate(-281.094 -384.969)"/><path class="g" d="M342.059,407.786l-1.215,3.043h2.2v-3.043Z" transform="translate(-287.772 -373.941)"/><path class="g" d="M263.537,395.908h-.9v-2.08L262.1,395.6h-.962l-.534-1.772v2.08h-.9v-3.325h1.252l.667,2,.665-2h1.252Z" transform="translate(-226.527 -362.466)"/><path class="g" d="M279.161,395.908H278.2l-.221-.634h-1.242l-.219.634h-.943l1.259-3.325H277.9Zm-2.139-1.439h.681l-.34-.983Z" transform="translate(-238.512 -362.466)"/><path class="g" d="M291.325,393.813h1.23v-1.23h.9v3.324h-.9v-1.266h-1.23v1.266h-.9v-3.324h.9Z" transform="translate(-249.714 -362.466)"/><path class="g" d="M306.618,395.908h-.957l-.221-.634H304.2l-.218.634h-.943l1.259-3.325h1.064Zm-2.14-1.439h.681l-.339-.983Z" transform="translate(-259.236 -362.466)"/><path class="g" d="M320.383,395.908h-2.5v-3.325h.9v2.493h1.6Z" transform="translate(-270.44 -362.466)"/><path class="g" d="M330.975,395.908h-2.5v-3.325h.9v2.493h1.6Z" transform="translate(-278.434 -362.466)"/><path class="g" d="M341.662,395.908h-2.6v-3.325h2.6v.8h-1.7v.439h1.577v.8h-1.577v.478h1.7Z" transform="translate(-286.429 -362.466)"/><path class="h" d="M227.817,355.926l-4.768,2.753-3.85-2.841a2.124,2.124,0,1,0-.268.368l3.687,2.722-1.566.9v7.092l4.556.759v-5.22l4.722-2.726Z" transform="translate(-192.977 -332.343)"/><path class="i" d="M270.075,355.7l-3.582,2.068L269,361.582l6.873-3.968,6.682,3.858,2.691-3.707-4.582-2.645" transform="translate(-231.652 -334.188)"/><path class="i" d="M290.935,346.838l-5.2-3-6.183,3.56" transform="translate(-241.511 -325.673)"/><path class="j" d="M344.346,345.363a2.76,2.76,0,0,0-2.161,4.48l-3.235,3.007L334.71,350.4l-2.692,3.707,4.913,2.837v3.467l4.556-1.693v-4.4l-2.125-1.227,3.134-2.912a2.761,2.761,0,1,0,1.849-4.812" transform="translate(-281.111 -326.824)"/><path class="k" d="M367.567,402.437a3.222,3.222,0,0,0-3.2,2.879l-7.751-.03V399.83l-4.556,1.693v9.893l4.556,2.624v-8.3l7.736.03a3.221,3.221,0,1,0,3.219-3.335" transform="translate(-296.235 -367.936)"/><path class="j" d="M194.673,402.714v.947h-7a3.677,3.677,0,1,0-.013.456h7.015v7.916l4.556-1.694v-6.866Z" transform="translate(-166.599 -368.133)"/><path class="l" d="M223.717,451.113l2.9-4.556h-5.652v-4.672l-4.556,1.694v7.171l-2.328,1.242a2.72,2.72,0,1,0,.22.4l2.395-1.277Z" transform="translate(-188.336 -399.679)"/><path class="i" d="M273.321,469.231l.616-3.736h4.416l-.44-4.556H271.6l-2.9,4.556h4.777l-.6,3.639c-.052,0-.1-.008-.158-.008a1.813,1.813,0,1,0,.6.1" transform="translate(-233.316 -414.06)"/><path class="h" d="M311.829,455.035h9.744l3.88,3.343a2.308,2.308,0,1,0,.3-.343l-3.691-3.178v-5.152l-4.556-2.624v3.4H306.281l.44,4.556h4.637" transform="translate(-261.685 -403.6)"/><path class="m" d="M187.061,409.73a.834.834,0,0,1,.514.111l.681-2.54,2.14.574-.65,2.424a.664.664,0,0,1-.544.508.64.64,0,0,1-.768-.491.655.655,0,0,1,.666-.623.834.834,0,0,1,.514.112l.422-1.263-1.786-.483-.489,2.127a.756.756,0,0,1-.6.657.577.577,0,1,1-.1-1.114" transform="translate(-171.193 -373.575)"/><path class="m" d="M195.438,408.29l1.237.332-.65,2.423a.664.664,0,0,1-.544.508.639.639,0,0,1-.768-.491.408.408,0,0,1,0-.063l.049-.185a.759.759,0,0,1,.618-.375.835.835,0,0,1,.514.112l.422-1.264L195.248,409Z" transform="translate(-177.472 -374.321)"/><path class="g" d="M414.949,422.548a.386.386,0,1,1,.386-.386.386.386,0,0,1-.386.386" transform="translate(-343.415 -384.5)"/><path class="g" d="M413.363,419.142c-.505,0-.9-.89-.9-2.025s.4-2.026.9-2.026.9.89.9,2.026-.4,2.025-.9,2.025m0-3.935c-.425,0-.785.874-.785,1.909s.359,1.909.785,1.909.785-.874.785-1.909-.359-1.909-.785-1.909" transform="translate(-341.83 -379.455)"/><path class="g" d="M409.436,420.684h0a.684.684,0,0,1-.636-.27c-.253-.437.32-1.225,1.3-1.793a3.364,3.364,0,0,1,1.569-.5.684.684,0,0,1,.636.27c.125.216.052.525-.2.868a3.7,3.7,0,0,1-1.1.926,3.364,3.364,0,0,1-1.569.5m2.236-2.45a3.3,3.3,0,0,0-1.51.487c-.9.517-1.474,1.266-1.261,1.635a.6.6,0,0,0,.535.212,3.3,3.3,0,0,0,1.511-.487,3.582,3.582,0,0,0,1.064-.894c.224-.3.3-.57.2-.741a.6.6,0,0,0-.535-.212" transform="translate(-339.02 -381.739)"/><path class="g" d="M411.672,420.685h0a3.368,3.368,0,0,1-1.569-.5c-.984-.568-1.556-1.356-1.3-1.794a.685.685,0,0,1,.636-.271,3.364,3.364,0,0,1,1.569.5,3.7,3.7,0,0,1,1.1.925c.257.344.33.652.2.868a.684.684,0,0,1-.636.27m-2.236-2.45a.6.6,0,0,0-.536.212c-.213.368.365,1.117,1.261,1.635a3.3,3.3,0,0,0,1.511.487.6.6,0,0,0,.535-.213c.1-.171.027-.441-.2-.741a3.591,3.591,0,0,0-1.063-.894,3.3,3.3,0,0,0-1.511-.487" transform="translate(-339.02 -381.739)"/><path class="g" d="M376.673,352.1a1.211,1.211,0,0,0-.413,1.038,1.658,1.658,0,0,0,3.2-.448.637.637,0,0,0-.376-.566.7.7,0,0,0-.632.093c-.093.078-.136.083-.152.078-.038-.009-.073-.094-.106-.175a.664.664,0,0,0-.493-.484,1.463,1.463,0,0,0-1.029.463m1.007-.339c.246.044.327.238.4.408.05.121.094.225.193.249.073.018.157-.015.264-.1a.578.578,0,0,1,.506-.072.525.525,0,0,1,.3.465,1.536,1.536,0,0,1-2.952.413,1.092,1.092,0,0,1,.376-.93,1.365,1.365,0,0,1,.919-.43" transform="translate(-314.497 -331.554)"/><path class="g" d="M384.933,354.978a.488.488,0,0,0-.242.225.344.344,0,0,0,.222.5.491.491,0,0,0,.33-.028.441.441,0,0,0,.28-.443.32.32,0,0,0-.025-.087.419.419,0,0,0-.564-.168m.449.218a.3.3,0,0,1-.191.364.363.363,0,0,1-.244.022.231.231,0,0,1-.154-.125.207.207,0,0,1-.015-.054.244.244,0,0,1,.026-.143.362.362,0,0,1,.18-.166.3.3,0,0,1,.4.1" transform="translate(-320.836 -334.048)"/><path class="g" d="M377.883,356.838a.256.256,0,1,0-.218.289.256.256,0,0,0,.218-.289m-.381.053a.129.129,0,1,1,.146.11.13.13,0,0,1-.146-.11" transform="translate(-315.345 -335.319)"/><path class="g" d="M379.907,358.852a.256.256,0,1,0-.218.289.256.256,0,0,0,.218-.289m-.381.053a.129.129,0,1,1,.146.11.129.129,0,0,1-.146-.11" transform="translate(-316.873 -336.839)"/><path class="g" d="M382.005,359.351a.256.256,0,1,0,.218-.289.256.256,0,0,0-.218.289m.381-.053a.129.129,0,1,1-.146-.11.13.13,0,0,1,.146.11" transform="translate(-318.839 -337.162)"/><path class="g" d="M378.264,354.333a.256.256,0,1,0,.218-.289.256.256,0,0,0-.218.289m.382-.053a.129.129,0,1,1-.146-.11.13.13,0,0,1,.146.11" transform="translate(-316.016 -333.375)"/><path class="n" d="M222.024,358.63h-.147v-.118a.465.465,0,0,1,.22-.4l.005,0,.018-.01a.32.32,0,1,0-.489-.272h-.147a.467.467,0,1,1,.714.4l-.025.014a.318.318,0,0,0-.149.27Z" transform="translate(-197.68 -335.882)"/><rect class="n" width="0.147" height="0.138" transform="translate(24.197 22.886)"/><path class="n" d="M225.843,361.472H225.7V361.4a.308.308,0,0,1,.146-.263l0,0,.011-.006a.163.163,0,1,0-.25-.138h-.147a.31.31,0,1,1,.473.263l-.016.009a.162.162,0,0,0-.075.137Z" transform="translate(-200.681 -338.388)"/><rect class="n" width="0.147" height="0.138" transform="translate(25.015 23.222)"/><path class="n" d="M219.175,361.472h-.147V361.4a.308.308,0,0,1,.146-.263l.005,0,.008,0a.163.163,0,1,0-.248-.139h-.147a.31.31,0,1,1,.473.263l-.016.009a.162.162,0,0,0-.075.137Z" transform="translate(-195.648 -338.388)"/><rect class="n" width="0.147" height="0.138" transform="translate(23.38 23.222)"/><rect class="n" width="0.147" height="0.19" transform="matrix(0.707, -0.707, 0.707, 0.707, 25.558, 21.63)"/><rect class="n" width="0.147" height="0.189" transform="translate(25.273 21.345) rotate(-45.147)"/><rect class="n" width="0.189" height="0.147" transform="matrix(0.708, -0.706, 0.706, 0.708, 25.558, 21.375)"/><rect class="n" width="0.19" height="0.147" transform="matrix(0.707, -0.707, 0.707, 0.707, 25.272, 21.661)"/><path class="h" d="M276.117,368.636l-9.281,5.253h18.7Z" transform="translate(-231.911 -344.391)"/><path class="o" d="M216.845,484.461a1.562,1.562,0,1,1-1.562-1.562A1.562,1.562,0,0,1,216.845,484.461Z" transform="translate(-191.821 -430.636)"/><path class="o" d="M222.39,484.084s-.966.219-.083,1.439a1.82,1.82,0,0,1,.38.827" transform="translate(-198.02 -431.53)"/><path class="o" d="M215.477,484.084s.966.219.083,1.439a1.821,1.821,0,0,0-.38.827" transform="translate(-192.922 -431.53)"/><line class="o" y2="3.124" transform="translate(23.462 52.263)"/><path class="o" d="M213.8,486.9a2.883,2.883,0,0,1,3.09,0" transform="translate(-191.879 -433.317)"/><path class="g" d="M220.7,492.121a1.406,1.406,0,0,0,.895-.455,1.472,1.472,0,0,0-.2-.48,2.668,2.668,0,0,1-.7.134Z" transform="translate(-197.091 -436.891)"/><path class="p" d="M220.7,492.121a1.406,1.406,0,0,0,.895-.455,1.472,1.472,0,0,0-.2-.48,2.668,2.668,0,0,1-.7.134Z" transform="translate(-197.091 -436.891)"/><path class="g" d="M224.957,490.145h0a2.627,2.627,0,0,1-.267.143,2.063,2.063,0,0,1,.135.274,1.423,1.423,0,0,0,.132-.418" transform="translate(-200.099 -436.105)"/><path class="p" d="M224.957,490.145h0a2.627,2.627,0,0,1-.267.143,2.063,2.063,0,0,1,.135.274A1.423,1.423,0,0,0,224.957,490.145Z" transform="translate(-200.099 -436.105)"/><path class="g" d="M215.829,491.667a1.406,1.406,0,0,0,.895.455v-.8a2.676,2.676,0,0,1-.7-.133,1.468,1.468,0,0,0-.2.479" transform="translate(-193.412 -436.892)"/><path class="p" d="M215.829,491.667a1.406,1.406,0,0,0,.895.455v-.8a2.676,2.676,0,0,1-.7-.133A1.468,1.468,0,0,0,215.829,491.667Z" transform="translate(-193.412 -436.892)"/><path class="g" d="M214.4,490.145a1.409,1.409,0,0,0,.133.418,2,2,0,0,1,.135-.274,2.612,2.612,0,0,1-.267-.143Z" transform="translate(-192.334 -436.105)"/><path class="p" d="M214.4,490.145a1.409,1.409,0,0,0,.133.418,2,2,0,0,1,.135-.274,2.612,2.612,0,0,1-.267-.143Z" transform="translate(-192.334 -436.105)"/><path class="g" d="M280.538,498.516a1.27,1.27,0,0,0-.067-.185.36.36,0,0,0-.425-.2l-.752.207a.36.36,0,0,0-.264.388,1.237,1.237,0,0,0,.037.193,1.627,1.627,0,0,0,.417.7.776.776,0,0,0,.518.257.436.436,0,0,0,.115-.015c.407-.112.563-.828.42-1.346m-.444,1.261a.608.608,0,0,1-.548-.219,1.535,1.535,0,0,1-.394-.66,1.133,1.133,0,0,1-.034-.179.272.272,0,0,1,.2-.293l.752-.207a.272.272,0,0,1,.321.15,1.131,1.131,0,0,1,.063.172c.131.477-.009,1.141-.359,1.238" transform="translate(-241.114 -442.125)"/><path class="g" d="M280.993,501.181a.044.044,0,0,0-.054-.031l-.176.048a.044.044,0,0,0,.012.087l.012,0,.176-.049a.044.044,0,0,0,.031-.054" transform="translate(-242.399 -444.41)"/><path class="g" d="M283.089,500.558l-.176.049a.044.044,0,0,0,.012.087l.012,0,.176-.048a.044.044,0,1,0-.023-.085" transform="translate(-244.022 -443.964)"/><path class="g" d="M282.261,502.523a.044.044,0,0,0-.06.017.289.289,0,0,1-.393.108.044.044,0,0,0-.043.077.377.377,0,0,0,.513-.141.044.044,0,0,0-.016-.06" transform="translate(-243.162 -445.444)"/><path class="g" d="M285.868,499.8l-.755-.193a.359.359,0,0,0-.217.012.044.044,0,0,0,.031.083.271.271,0,0,1,.164-.009l.756.193a.272.272,0,0,1,.2.289,1.125,1.125,0,0,1-.031.18c-.122.479-.573.986-.925.9a.572.572,0,0,1-.351-.411.044.044,0,1,0-.084.028.654.654,0,0,0,.413.469.423.423,0,0,0,.1.013c.385,0,.806-.5.928-.974a1.253,1.253,0,0,0,.033-.194.36.36,0,0,0-.271-.383" transform="translate(-245.363 -443.24)"/><path class="g" d="M286.014,502.084l-.177-.045a.044.044,0,0,0-.022.086l.177.045.011,0a.044.044,0,0,0,.011-.087" transform="translate(-246.212 -445.081)"/><path class="g" d="M288.153,502.721h.011a.044.044,0,0,0,.011-.087l-.177-.045a.044.044,0,0,0-.022.086Z" transform="translate(-247.843 -445.498)"/><path class="g" d="M285.848,503.862a.044.044,0,1,0,.045.076.289.289,0,0,1,.4.1.044.044,0,0,0,.038.022l.022-.006a.044.044,0,0,0,.015-.06.376.376,0,0,0-.516-.132" transform="translate(-246.246 -446.419)"/><path class="g" d="M360.481,522.236l-.366-.309-.023.478a.1.1,0,0,1-.045.076l-.407.252.448.169a.1.1,0,0,1,.058.066l.115.465.3-.373a.1.1,0,0,1,.081-.036l.478.035-.263-.4a.1.1,0,0,1-.008-.088l.181-.444-.462.126a.1.1,0,0,1-.086-.019" transform="translate(-301.96 -460.094)"/><path class="g" d="M244.764,520.692l-.433-.2.1.468a.1.1,0,0,1-.024.085l-.329.348.477.049a.1.1,0,0,1,.074.049l.23.42.194-.438a.093.093,0,0,1,.069-.055l.471-.089-.357-.319a.1.1,0,0,1-.031-.083l.061-.475-.414.24a.094.094,0,0,1-.088,0" transform="translate(-214.735 -458.978)"/><path class="n" d="M388.807,492.826h-2.269l.112-.037h0a.068.068,0,0,0,.038-.012l2-.658a.065.065,0,0,0,.042-.083l-.15-.457a.066.066,0,0,0-.083-.042l-2.487.817a.065.065,0,0,0-.038.033.067.067,0,0,0,0,.05l.15.457v1.8a.066.066,0,0,0,.066.066h2.618a.066.066,0,0,0,.066-.066v-1.806a.066.066,0,0,0-.066-.066m-.871.481.345-.345,0-.005h.339l-.35.35Zm-.523,0,.345-.345,0-.005h.338l-.35.35Zm-.523,0,.345-.345,0-.005h.338l-.35.35Zm-.523,0,.345-.345,0-.005h.339l-.35.35Zm.184-.993,0,0,.435.22-.34.112-.442-.223Zm.5-.163,0,0,.435.22-.32.1-.441-.223Zm.5-.163,0,0,.435.22-.32.105-.441-.224Zm.5-.163,0,0,.435.22-.32.1-.441-.223Zm-1.568.883-.248.082-.082-.248Zm-.22.526v-.277h.277Zm2.486-.209v.282h-.282Zm-.175-1.081-.349-.176.262-.087Zm.175,2.688h-2.486v-1.193h2.486Z" transform="translate(-321.832 -437.152)"/></g></g></svg>