<svg xmlns="http://www.w3.org/2000/svg" width="27.379" height="35.936" viewBox="0 0 27.379 35.936"><defs><style>.a{fill:#fff;}</style></defs><path class="a" d="M17.69,2A10.225,10.225,0,0,1,27.957,12.182c0,7.632-10.267,18.909-10.267,18.909S7.422,19.814,7.422,12.182A10.225,10.225,0,0,1,17.69,2m0,6.845a3.422,3.422,0,1,0,3.422,3.422A3.422,3.422,0,0,0,17.69,8.845m13.69,22.246c0,3.782-6.126,6.845-13.69,6.845S4,34.872,4,31.091c0-2.207,2.088-4.175,5.322-5.425l1.1,1.557c-1.848.77-2.995,1.831-2.995,3.012,0,2.361,4.6,4.278,10.267,4.278S27.957,32.6,27.957,30.235c0-1.181-1.147-2.242-2.995-3.012l1.1-1.557C29.292,26.915,31.379,28.883,31.379,31.091Z" transform="translate(-4 -2)"/></svg>