<svg xmlns="http://www.w3.org/2000/svg" xmlns:xlink="http://www.w3.org/1999/xlink" width="1016.668" height="1021.928" viewBox="0 0 1016.668 1021.928"><defs><style>.a{fill:#11afd3;}.b{filter:url(#a);}</style><filter id="a" x="0" y="0" width="1016.668" height="1021.928" filterUnits="userSpaceOnUse"><feOffset dy="3" input="SourceAlpha"/><feGaussianBlur stdDeviation="3" result="b"/><feFlood flood-opacity="0.09"/><feComposite operator="in" in2="b"/><feComposite in="SourceGraphic"/></filter></defs><g class="b" transform="matrix(1, 0, 0, 1, 0, 0)"><path class="a" d="M569.775,57.924c53.151,38.146,77.326,126.706,83.67,212.2s-4.973,167.918-32.4,257.628-70.811,186.9-139.05,220.058c-68.41,33.354-161.682,2.684-231.807-47.922C180.231,649.281,133.252,578.548,89.36,501.873S4.49,342.389.375,249.228C-3.911,156.069,28.665,52.364,93.3,16.519c64.81-35.845,161.682-3.642,251.352,6.134S516.625,19.778,569.775,57.924Z" transform="translate(488.16 1009.93) rotate(-137)"/></g></svg>