<svg xmlns="http://www.w3.org/2000/svg" width="19.415" height="15.77" viewBox="0 0 19.415 15.77">
  <path id="Path_7515" data-name="Path 7515" d="M71.415,224.756a7.956,7.956,0,0,1-2.287.627,4,4,0,0,0,1.751-2.2,8.033,8.033,0,0,1-2.531.967,3.986,3.986,0,0,0-6.787,3.631,11.307,11.307,0,0,1-8.209-4.161,3.987,3.987,0,0,0,1.233,5.316,3.983,3.983,0,0,1-1.8-.5v.05a3.987,3.987,0,0,0,3.194,3.905,4.031,4.031,0,0,1-1.049.14,3.815,3.815,0,0,1-.75-.074,3.985,3.985,0,0,0,3.72,2.766,7.991,7.991,0,0,1-4.946,1.7,8.457,8.457,0,0,1-.95-.055,11.323,11.323,0,0,0,17.436-9.539l-.013-.516a7.955,7.955,0,0,0,1.992-2.058Zm0,0" transform="translate(-52 -222.89)" fill="#fff"/>
</svg>
