<svg xmlns="http://www.w3.org/2000/svg" width="19.884" height="13.994" viewBox="0 0 19.884 13.994">
  <path id="Path_7516" data-name="Path 7516" d="M192.109,335.091c-.718-.853-2.043-1.2-4.574-1.2h-9.187c-2.589,0-3.936.371-4.651,1.279-.7.886-.7,2.191-.7,4v3.443c0,3.5.827,5.275,5.348,5.275h9.187c2.195,0,3.411-.307,4.2-1.06.807-.772,1.151-2.033,1.151-4.215v-3.443c0-1.9-.054-3.217-.775-4.074Zm-6.343,6.271-4.172,2.18a.641.641,0,0,1-.939-.568v-4.347a.641.641,0,0,1,.937-.569l4.172,2.166a.642.642,0,0,1,0,1.138Zm0,0" transform="translate(-173 -333.89)" fill="#fff"/>
</svg>
